<svg width="24" height="20" viewBox="0 0 24 20" fill="none" xmlns="http://www.w3.org/2000/svg">
<path d="M22.1333 19.75L13.7333 12.925C13.0667 13.3583 12.3 13.7014 11.4333 13.9542C10.5667 14.2069 9.64444 14.3333 8.66667 14.3333C6.24444 14.3333 4.19444 13.6517 2.51667 12.2885C0.838889 10.9253 0 9.25972 0 7.29167C0 5.32361 0.838889 3.65799 2.51667 2.29479C4.19444 0.931597 6.24444 0.25 8.66667 0.25C11.0889 0.25 13.1389 0.931597 14.8167 2.29479C16.4944 3.65799 17.3333 5.32361 17.3333 7.29167C17.3333 8.08611 17.1778 8.83542 16.8667 9.53958C16.5556 10.2438 16.1333 10.8667 15.6 11.4083L24 18.2333L22.1333 19.75ZM8.66667 12.1667C10.3333 12.1667 11.75 11.6927 12.9167 10.7448C14.0833 9.79688 14.6667 8.64583 14.6667 7.29167C14.6667 5.9375 14.0833 4.78646 12.9167 3.83854C11.75 2.89062 10.3333 2.41667 8.66667 2.41667C7 2.41667 5.58333 2.89062 4.41667 3.83854C3.25 4.78646 2.66667 5.9375 2.66667 7.29167C2.66667 8.64583 3.25 9.79688 4.41667 10.7448C5.58333 11.6927 7 12.1667 8.66667 12.1667Z" fill="#1C1B1F"/>
</svg>
