<svg width="35" height="30" viewBox="0 0 35 30" fill="none" xmlns="http://www.w3.org/2000/svg">
<path d="M10.1449 30C9.21498 30 8.41888 29.7063 7.75664 29.1188C7.0944 28.5312 6.76328 27.825 6.76328 27C6.76328 26.175 7.0944 25.4688 7.75664 24.8812C8.41888 24.2937 9.21498 24 10.1449 24C11.0749 24 11.871 24.2937 12.5332 24.8812C13.1954 25.4688 13.5266 26.175 13.5266 27C13.5266 27.825 13.1954 28.5312 12.5332 29.1188C11.871 29.7063 11.0749 30 10.1449 30ZM27.0531 30C26.1232 30 25.3271 29.7063 24.6649 29.1188C24.0026 28.5312 23.6715 27.825 23.6715 27C23.6715 26.175 24.0026 25.4688 24.6649 24.8812C25.3271 24.2937 26.1232 24 27.0531 24C27.9831 24 28.7792 24.2937 29.4414 24.8812C30.1037 25.4688 30.4348 26.175 30.4348 27C30.4348 27.825 30.1037 28.5312 29.4414 29.1188C28.7792 29.7063 27.9831 30 27.0531 30ZM4.43841 22.5L9.4686 14.4L3.38164 3H0V0H5.49517L7.10145 3H35L26.5882 16.5H12.0048L10.1449 19.5H30.4348V22.5H4.43841Z" fill="#1C1B1F"/>
</svg>
